<svg width="481" height="130" viewBox="0 0 481 130" fill="none" xmlns="http://www.w3.org/2000/svg">
<mask id="mask0_42_5" style="mask-type:luminance" maskUnits="userSpaceOnUse" x="42" y="61" width="14" height="50">
<path d="M42.3595 61.8544H55.0989V110.062H42.3595V61.8544Z" fill="white"/>
</mask>
<g mask="url(#mask0_42_5)">
<mask id="mask1_42_5" style="mask-type:luminance" maskUnits="userSpaceOnUse" x="42" y="62" width="14" height="49">
<path d="M43.6367 62.7018L55.0989 63.0008L53.8658 110.167L42.4037 109.868L43.6367 62.7018Z" fill="white"/>
</mask>
<g mask="url(#mask1_42_5)">
<mask id="mask2_42_5" style="mask-type:luminance" maskUnits="userSpaceOnUse" x="1" y="30" width="55" height="81">
<path d="M3.61612 30.9217L55.9725 32.2952L53.9378 110.184L1.58136 108.81L3.61612 30.9217Z" fill="white"/>
</mask>
<g mask="url(#mask2_42_5)">
<mask id="mask3_42_5" style="mask-type:luminance" maskUnits="userSpaceOnUse" x="1" y="30" width="55" height="81">
<path d="M3.62165 30.9217L55.9725 32.2952L53.9322 110.294L1.58136 108.921L3.62165 30.9217Z" fill="white"/>
</mask>
<g mask="url(#mask3_42_5)">
<mask id="mask4_42_5" style="mask-type:luminance" maskUnits="userSpaceOnUse" x="1" y="30" width="55" height="81">
<path d="M3.62165 30.9217L55.9725 32.2952L53.9322 110.278L1.58136 108.91L3.62165 30.9217Z" fill="white"/>
</mask>
<g mask="url(#mask4_42_5)">
<path d="M29.8247 70.9376C21.7354 71.364 15.233 64.4963 16.079 56.4322C16.748 50.0905 22.0229 45.0726 28.3815 44.7403C36.4653 44.3138 42.9732 51.1816 42.1272 59.2457C41.4582 65.5874 36.1833 70.6053 29.8247 70.9376ZM29.3934 31.6029C14.3704 31.4312 2.53786 44.1809 2.91937 59.2291C3.47783 81.4663 21.857 103.681 26.6177 109.065C27.2204 109.746 28.2765 109.774 28.9123 109.12C34.1043 103.825 54.6897 81.4386 55.2868 58.5257C55.6684 43.9095 44.0404 31.7691 29.3934 31.6029Z" fill="#5D9630"/>
</g>
</g>
</g>
</g>
</g>
<mask id="mask5_42_5" style="mask-type:luminance" maskUnits="userSpaceOnUse" x="0" y="60" width="15" height="51">
<path d="M0.464478 60.1375H14.4092V110.112H0.464478V60.1375Z" fill="white"/>
</mask>
<g mask="url(#mask5_42_5)">
<path d="M28.9567 69.3923C20.4582 70.0625 13.425 63.0175 14.0941 54.5048C14.6194 47.8087 20.038 42.3809 26.7229 41.8547C35.2213 41.1846 42.2545 48.2351 41.5855 56.7423C41.0602 63.444 35.6415 68.8662 28.9567 69.3923ZM27.4196 28.0029C11.6059 28.2355 -0.497596 41.9877 0.315203 57.8113C1.51505 81.206 21.4756 104.075 26.6289 109.613C27.2869 110.317 28.3982 110.311 29.0507 109.608C34.3698 103.892 55.4196 79.7605 55.4196 55.6235C55.4196 40.232 42.8406 27.7758 27.4196 28.0029Z" fill="#5D9630"/>
</g>
<mask id="mask6_42_5" style="mask-type:luminance" maskUnits="userSpaceOnUse" x="0" y="81" width="56" height="30">
<path d="M0.0055542 81.638H55.4749V110.051H0.0055542V81.638Z" fill="white"/>
</mask>
<g mask="url(#mask6_42_5)">
<path d="M28.9234 68.9659C20.3531 69.6416 13.2591 62.5356 13.9337 53.9509C14.4645 47.1939 19.9274 41.7273 26.6675 41.1957C35.2378 40.5199 42.3318 47.6259 41.6573 56.2051C41.1265 62.9621 35.6691 68.4342 28.9234 68.9659ZM27.3752 27.2219C11.4234 27.4601 -0.774138 41.323 0.04419 57.2796C1.25509 80.8737 21.3815 103.936 26.579 109.519C27.237 110.228 28.3594 110.228 29.0174 109.519C34.3863 103.753 55.6131 79.4171 55.6131 55.0808C55.6131 39.5562 42.929 26.9893 27.3752 27.2219Z" fill="#5D9630"/>
</g>
<mask id="mask7_42_5" style="mask-type:luminance" maskUnits="userSpaceOnUse" x="0" y="0" width="56" height="84">
<path d="M0 0H55.0989V83.1943H0V0Z" fill="white"/>
</mask>
<g mask="url(#mask7_42_5)">
<path d="M16.4992 83.2497C15.2386 82.5242 0.98416 73.9837 0.353827 59.2789C0.0663064 52.4499 2.89728 45.9477 6.80093 40.4867C9.70378 36.4214 13.4747 33.2035 16.936 29.6533C20.342 26.1585 23.5103 22.3148 26.1035 18.1775C27.6849 15.6519 29.1778 12.7331 29.2165 9.68136C29.2662 5.40007 27.3974 1.97726 26.0648 0C28.9345 1.74464 38.9148 8.29119 43.2884 21.4397C48.8232 38.0774 40.9938 52.1121 39.722 54.3109C41.0822 53.3915 43.4653 51.5139 45.29 48.3071C46.7663 45.7206 47.2916 43.3058 47.4962 41.7827C48.7015 43.0787 55.5412 50.6831 54.7782 61.9873C53.8659 75.5456 42.8129 82.5851 41.7181 83.2497C41.9614 81.7986 42.271 78.7413 40.9827 75.2521C40.0262 72.6545 38.572 70.8822 37.6209 69.8852C37.7315 70.9099 37.7979 72.7985 36.9906 74.9364C35.8405 77.9826 33.6454 79.6275 32.7884 80.198C33.7836 77.3346 33.9772 74.8588 33.8389 72.8317C33.3524 65.9252 28.9068 63.1448 27.8508 55.7841C27.425 52.8155 27.7015 50.1514 28.1659 47.9914C26.3468 49.0493 18.7275 53.7515 15.5537 63.6765C12.496 73.2582 15.6422 81.2503 16.4992 83.2497Z" fill="#5D9630"/>
</g>
<path d="M92.0062 43.7234C95.5007 43.7234 98.9123 44.233 102.246 45.2521C105.592 46.2712 108.074 47.2792 109.7 48.265L112.044 49.838L106.095 61.5797C105.619 61.2695 104.967 60.8708 104.126 60.3834C103.297 59.8849 101.738 59.2203 99.4375 58.3895C97.1484 57.5476 95.0141 57.1267 93.0236 57.1267C90.5742 57.1267 88.6887 57.6529 87.3617 58.6996C86.0347 59.7354 85.3711 61.1366 85.3711 62.9089C85.3711 63.8117 85.6808 64.637 86.3001 65.3902C86.9304 66.1434 88.0031 66.9576 89.507 67.8272C91.022 68.6856 92.349 69.3779 93.4881 69.9096C94.6382 70.4303 96.413 71.2057 98.8183 72.2358C102.987 74.0248 106.548 76.4451 109.501 79.5024C112.448 82.5486 113.924 86.0046 113.924 89.8705C113.924 93.5813 113.25 96.8214 111.912 99.5962C110.584 102.36 108.76 104.525 106.449 106.087C104.132 107.655 101.566 108.812 98.7519 109.566C95.932 110.33 92.8799 110.718 89.5955 110.718C86.7756 110.718 84.0109 110.43 81.3016 109.854C78.5868 109.278 76.3142 108.563 74.4896 107.705C72.6594 106.852 71.0172 105.999 69.5575 105.157C68.0978 104.315 67.0251 103.606 66.3505 103.03L65.3332 102.188L72.6981 89.8041C73.3174 90.3247 74.1689 90.9893 75.2637 91.7979C76.3695 92.6121 78.3158 93.6976 81.1026 95.0546C83.8893 96.4171 86.3498 97.0928 88.4896 97.0928C94.6934 97.0928 97.8009 94.977 97.8009 90.7345C97.8009 89.8484 97.5797 89.0287 97.1374 88.2754C96.695 87.5111 95.9099 86.7468 94.793 85.9935C93.6705 85.2403 92.6753 84.6421 91.8072 84.1991C90.9501 83.756 89.5402 83.0803 87.5828 82.1609C85.6365 81.247 84.1879 80.5547 83.2479 80.0784C79.3387 78.1454 76.3142 75.7306 74.18 72.834C72.0401 69.9429 70.973 66.8191 70.973 63.4628C70.973 57.675 73.1073 52.9396 77.3869 49.262C81.661 45.5733 86.5323 43.7234 92.0062 43.7234Z" fill="black"/>
<path d="M120.796 109.543V69.3558H134.641V73.5872H134.796C138.39 69.9706 142.227 68.1595 146.296 68.1595C149.216 68.1595 151.947 68.7687 154.502 69.9761C157.067 71.1724 158.997 73.0279 160.296 75.5368C164.366 70.6186 168.8 68.1595 173.611 68.1595C177.885 68.1595 181.556 69.3669 184.625 71.7706C187.705 74.1799 189.248 77.9405 189.248 83.0471V109.543H175.402V86.8133C175.402 84.6754 174.811 82.8864 173.633 81.452C172.466 80.023 170.714 79.303 168.369 79.303C166.334 79.303 164.775 79.9178 163.702 81.1418C162.641 82.3714 162.055 83.8446 161.955 85.5726V109.543H148.11V86.8133C148.11 84.6754 147.518 82.8864 146.341 81.452C145.157 80.023 143.399 79.303 141.055 79.303C138.915 79.303 137.306 79.9676 136.233 81.2969C135.172 82.6261 134.641 84.2102 134.641 86.0379V109.543H120.796Z" fill="black"/>
<path d="M200.587 104.581C196.827 100.477 194.947 95.4478 194.947 89.4939C194.947 83.5289 196.827 78.4833 200.587 74.3626C204.346 70.2309 209.113 68.1595 214.896 68.1595C220.215 68.1595 224.606 69.8377 228.056 73.1885V69.3558H241.901V109.543H228.211V105.002H228.056C224.606 108.812 220.215 110.718 214.896 110.718C209.113 110.718 204.346 108.674 200.587 104.581ZM212.353 82.6704C210.55 84.4428 209.655 86.7191 209.655 89.4939C209.655 92.2577 210.517 94.5174 212.242 96.2731C213.967 98.0177 216.234 98.8873 219.054 98.8873C221.764 98.8873 223.992 98.0011 225.734 96.2288C227.486 94.4454 228.365 92.1967 228.365 89.4939C228.365 86.7191 227.464 84.4428 225.667 82.6704C223.865 80.8981 221.664 80.0119 219.054 80.0119C216.384 80.0119 214.15 80.8981 212.353 82.6704Z" fill="black"/>
<path d="M251.269 109.543V69.3558H265.115V75.138H265.27C265.369 74.9331 265.54 74.6728 265.778 74.3626C266.01 74.0525 266.519 73.5097 267.304 72.7232C268.084 71.9423 268.919 71.2389 269.804 70.6186C270.699 69.9872 271.849 69.4167 273.254 68.9127C274.669 68.4143 276.107 68.1595 277.567 68.1595C279.071 68.1595 280.552 68.3755 282.012 68.802C283.472 69.2173 284.539 69.6327 285.219 70.0426L286.325 70.6851L280.53 82.4268C278.805 80.9646 276.405 80.2335 273.342 80.2335C271.661 80.2335 270.224 80.6046 269.029 81.3412C267.835 82.0667 266.984 82.9529 266.486 83.9997C265.999 85.052 265.646 85.9437 265.424 86.6803C265.214 87.4059 265.115 87.9764 265.115 88.3862V109.543H251.269Z" fill="black"/>
<path d="M292.568 69.3557V54.3795H306.414V69.3557H314.862V79.9233H306.414V92.7062C306.414 96.417 307.459 98.2669 309.554 98.2669C310.068 98.2669 310.616 98.1672 311.191 97.9567C311.766 97.7352 312.208 97.5247 312.518 97.3143L312.982 97.0041L316.433 108.214C313.469 109.881 310.074 110.718 306.259 110.718C303.649 110.718 301.404 110.258 299.535 109.344C297.661 108.43 296.24 107.206 295.267 105.666C294.305 104.132 293.613 102.515 293.188 100.815C292.773 99.1198 292.568 97.3032 292.568 95.3647V79.9233H286.796V69.3557H292.568Z" fill="black"/>
<path d="M355.469 96.2288C357.709 96.2288 359.882 95.8909 361.994 95.2097C364.117 94.534 365.671 93.8749 366.66 93.2379L368.142 92.2189L374.401 104.758C374.191 104.924 373.904 105.135 373.539 105.401C373.168 105.655 372.322 106.132 370.995 106.841C369.668 107.55 368.242 108.164 366.727 108.679C365.223 109.2 363.238 109.66 360.777 110.075C358.328 110.502 355.801 110.718 353.191 110.718C347.203 110.718 341.519 109.244 336.139 106.287C330.77 103.335 326.441 99.2749 323.156 94.102C319.866 88.9345 318.224 83.3461 318.224 77.3313C318.224 72.8008 319.186 68.4419 321.122 64.2603C323.051 60.0843 325.617 56.5008 328.818 53.5156C332.031 50.5358 335.774 48.1543 340.054 46.3819C344.328 44.6096 348.707 43.7234 353.191 43.7234C357.36 43.7234 361.209 44.2219 364.736 45.2078C368.258 46.1992 370.752 47.1961 372.212 48.1986L374.401 49.6829L368.142 62.2222C367.772 61.9009 367.219 61.5132 366.483 61.0701C365.759 60.6271 364.299 60.0455 362.104 59.32C359.92 58.5833 357.709 58.2123 355.469 58.2123C351.914 58.2123 348.729 58.7883 345.915 59.9403C343.095 61.0923 340.872 62.6154 339.235 64.504C337.599 66.3816 336.344 68.4032 335.475 70.5743C334.618 72.7343 334.193 74.9331 334.193 77.1762C334.193 82.0944 336.028 86.5031 339.7 90.4022C343.382 94.2903 348.641 96.2288 355.469 96.2288Z" fill="black"/>
<path d="M381.35 46.9358C382.97 45.313 384.899 44.4988 387.144 44.4988C389.384 44.4988 391.308 45.313 392.917 46.9358C394.537 48.5641 395.35 50.4971 395.35 52.7402C395.35 54.9888 394.537 56.9218 392.917 58.5446C391.308 60.1563 389.384 60.9594 387.144 60.9594C384.899 60.9594 382.97 60.1563 381.35 58.5446C379.741 56.9218 378.939 54.9888 378.939 52.7402C378.939 50.4971 379.741 48.5641 381.35 46.9358ZM380.023 69.3558V109.543H393.868V69.3558H380.023Z" fill="black"/>
<path d="M405.99 69.3557V54.3795H419.835V69.3557H428.284V79.9233H419.835V92.7062C419.835 96.417 420.88 98.2669 422.976 98.2669C423.49 98.2669 424.037 98.1672 424.613 97.9567C425.188 97.7352 425.63 97.5247 425.94 97.3143L426.404 97.0041L429.854 108.214C426.891 109.881 423.496 110.718 419.68 110.718C417.071 110.718 414.826 110.258 412.957 109.344C411.082 108.43 409.661 107.206 408.688 105.666C407.726 104.132 407.035 102.515 406.609 100.815C406.195 99.1198 405.99 97.3032 405.99 95.3647V79.9233H400.217V69.3557H405.99Z" fill="black"/>
<path d="M464.976 69.3558H480.945L449.406 129.925H433.459L447.305 103.274L428.284 69.3558H444.253L455.444 89.9592L464.976 69.3558Z" fill="black"/>
</svg>
